{"title":"Bro 2012 DVDRip XviD AC3-PTpOWeR","uid":7910953,"size":1465022947,"categoryP":"video","categoryS":"movies","magnet":"?xt=urn:btih:5c50c64c2fe948f629a075073b45a9a51661bce4&amp;dn=Bro+2012+DVDRip+XviD+AC3-PTpOWeR&amp;tr=udp%3A%2F%2Ftracker.openbittorrent.com%3A80&amp;tr=udp%3A%2F%2Fopen.demonii.com%3A1337&amp;tr=udp%3A%2F%2Ftracker.coppersurfer.tk%3A6969&amp;tr=udp%3A%2F%2Fexodus.desync.com%3A6969","seeders":1,"leechers":0,"uploader":"xxxlavalxxx","files":2,"time":1355216467,"description":" &lt;a href=&quot;http://www.shotpix.com/images/44815244740947928279.jpg&quot; rel=&quot;nofollow&quot; target=&quot;_NEW&quot;&gt;http://www.shotpix.com/images/44815244740947928279.jpg&lt;/a&gt;\n\n &lt;a href=&quot;\nhttp://www.imdb.com/title/tt1690540/&quot; rel=&quot;nofollow&quot; target=&quot;_NEW&quot;&gt;\nhttp://www.imdb.com/title/tt1690540/&lt;/a&gt;\n\n\nA college student gets involved in the wild partying lifestyle of the professional freestyle motocross world.\n \n\n\nDirector: \nNick Parada\n\n Writers: \nKim MacKenzie (screenplay), Nick Parada (screenplay)\n \nStars:\n D.J. Bennett, Jakob Bokulich and Mario Castillo\n\nGenres:\n Action | Crime | Drama \n\n\nCountry:\nUSA \n\nLanguage:\nEnglish \n\nFormat                                   : AVI\nFormat/Info                              : Audio Video Interleave\nFile size                                : 1.36 GiB\nDuration                                 : 1h 29mn\nOverall bit rate                         : 2 185 Kbps\n\nVideo\nID                                       : 0\nFormat                                   : MPEG-4 Visual\nFormat profile                           : Simple@L3\nFormat settings, BVOP                    : No\nFormat settings, QPel                    : No\nFormat settings, GMC                     : No warppoints\nFormat settings, Matrix                  : Default (H.263)\nCodec ID                                 : XVID\nCodec ID/Hint                            : XviD\nDuration                                 : 1h 29mn\nSource duration                          : 1h 29mn\nBit rate                                 : 1 726 Kbps\nWidth                                    : 720 pixels\nHeight                                   : 400 pixels\nDisplay aspect ratio                     : 16:9\nFrame rate                               : 23.976 fps\nColor space                              : YUV\nChroma subsampling                       : 4:2:0\nBit depth                                : 8 bits\nScan type                                : Progressive\nCompression mode                         : Lossy\nBits/(Pixel*Frame)                       : 0.250\nStream size                              : 1.08 GiB (79%)\nWriting library                          : XviD 1.1.2 (UTC 2006-11-01)\n\nAudio\nID                                       : 1\nFormat                                   : AC-3\nFormat/Info                              : Audio Coding 3\nMode extension                           : CM (complete main)\nFormat settings, Endianness              : Big\nCodec ID                                 : 2000\nDuration                                 : 1h 29mn\nBit rate mode                            : Constant\nBit rate                                 : 448 Kbps\nChannel(s)                               : 6 channels\nChannel positions                        : Front: L C R, Side: L R, LFE\nSampling rate                            : 48.0 KHz\nBit depth                                : 16 bits\nCompression mode                         : Lossy\nStream size                              : 286 MiB (21%)\nAlignment                                : Aligned on interleaves\nInterleave, duration                     : 32 ms (0.77 video frame)\nInterleave, preload duration             : 160 ms\n\n &lt;a href=&quot;\nhttp://www.shotpix.com/images/56952015298867342051.jpg&quot; rel=&quot;nofollow&quot; target=&quot;_NEW&quot;&gt;\nhttp://www.shotpix.com/images/56952015298867342051.jpg&lt;/a&gt; &lt;a href=&quot;\nhttp://www.shotpix.com/images/67036263680077503338.jpg&quot; rel=&quot;nofollow&quot; target=&quot;_NEW&quot;&gt;\nhttp://www.shotpix.com/images/67036263680077503338.jpg&lt;/a&gt; &lt;a href=&quot;\nhttp://www.shotpix.com/images/66320297028221251461.jpg&quot; rel=&quot;nofollow&quot; target=&quot;_NEW&quot;&gt;\nhttp://www.shotpix.com/images/66320297028221251461.jpg&lt;/a&gt; &lt;a href=&quot;\nhttp://www.shotpix.com/images/65713815747383230743.jpg&quot; rel=&quot;nofollow&quot; target=&quot;_NEW&quot;&gt;\nhttp://www.shotpix.com/images/65713815747383230743.jpg&lt;/a&gt;","torrent":{"xt":"urn:btih:5c50c64c2fe948f629a075073b45a9a51661bce4","amp;dn":"Bro+2012+DVDRip+XviD+AC3-PTpOWeR","amp;tr":["udp%3A%2F%2Ftracker.openbittorrent.com%3A80","udp%3A%2F%2Fopen.demonii.com%3A1337","udp%3A%2F%2Ftracker.coppersurfer.tk%3A6969","udp%3A%2F%2Fexodus.desync.com%3A6969"],"infoHash":"5c50c64c2fe948f629a075073b45a9a51661bce4","infoHashBuffer":{"type":"Buffer","data":[92,80,198,76,47,233,72,246,41,160,117,7,59,69,169,165,22,97,188,228]},"announce":[],"urlList":[]}}